<?xml version="1.0" encoding="UTF-8"?>
<svg id="Layer_2" data-name="Layer 2" xmlns="http://www.w3.org/2000/svg" xmlns:xlink="http://www.w3.org/1999/xlink" viewBox="0 0 249.74 62.05">
  <defs>
    <style>
      .cls-1 {
        clip-path: url(#clippath);
      }

      .cls-2 {
        fill: none;
      }

      .cls-3 {
        fill: #d77673;
      }
    </style>
    <clipPath id="clippath">
      <rect class="cls-2" width="249.74" height="62.05"/>
    </clipPath>
  </defs>
  <g id="Layer_1-2" data-name="Layer 1">
    <polygon class="cls-3" points="61.86 13.96 56.04 22.3 50.03 13.96 36.65 13.96 48.87 30.64 36.84 47.9 49.84 47.9 55.46 39.75 71.75 62.05 80.67 55.85 62.83 31.61 75.05 13.96 61.86 13.96"/>
    <g class="cls-1">
      <path class="cls-3" d="M76.99,35.29V4.27h10.86V14.16h9.31v9.5h-9.31v9.11c0,4.46,2.33,5.62,5.43,5.62,1.16,0,2.52-.19,3.68-.58l1.16,9.31c-2.33,.78-4.85,1.36-7.17,1.36-8.92-.19-13.96-5.04-13.96-13.19"/>
      <path class="cls-3" d="M136.13,14.16h11.05v3.88c2.33-2.91,6.01-4.46,9.7-4.46,8.73,0,14.54,5.62,14.54,15.51v18.81h-11.05V30.06c0-4.85-2.33-7.37-6.4-7.37-4.46,0-6.98,3.3-6.98,8.53v16.48h-11.05V14.16h.19Z"/>
      <path class="cls-3" d="M199.35,31.03c.19-4.27-2.91-7.76-7.18-8.15-4.27-.19-7.76,2.91-8.15,7.18v.97c-.19,4.27,2.91,7.76,7.18,8.15,4.27,.19,7.76-2.91,8.15-7.17v-.97Zm-25.99,0c0-10.08,6.59-17.45,15.71-17.45,4.07-.19,7.95,1.55,10.47,4.65V0h11.05V48.09h-11.05v-4.07c-2.52,3.1-6.4,4.85-10.47,4.65-9.11,0-15.71-7.56-15.71-17.65"/>
      <path class="cls-3" d="M109.95,27.34c.97-3.1,3.88-5.24,7.18-5.24,3.1-.19,6.01,2.13,6.59,5.24h-13.77Zm24.24,7.17v-3.88c0-11.44-7.18-17.45-17.26-17.45-9.69-.19-17.65,7.37-18.03,16.87v.97c0,1.16,0,2.13,.19,3.3,.58,3.1,1.94,6.01,3.88,8.53,2.13,2.33,4.85,4.07,7.76,4.85,3.88,1.16,7.76,1.16,11.64-.19,3.1-.97,5.82-2.71,7.76-5.23,1.36-1.75,2.33-3.68,3.1-5.62h-11.05l-.58,.78c-.19,.19-.58,.58-.78,.77-2.91,2.33-7.37,1.94-9.7-.97-.39-.58-.78-1.16-.97-1.74-.19-.39-.39-.78-.39-1.16l24.43,.19Z"/>
      <polygon class="cls-3" points="0 0 34.71 0 34.71 10.28 11.64 10.28 11.64 19 33.16 19 33.16 29.09 11.64 29.09 11.64 38.01 34.71 38.01 34.71 48.28 0 48.28 0 0"/>
      <path class="cls-3" d="M216.8,2.91c.39,0,.58-.19,.58-.58v-.19c0-.39-.19-.58-.58-.58h-.78v1.16l.78,.19Zm-.97-1.55h1.16c.58,0,.97,.39,.97,.97v.19c0,.39-.19,.78-.77,.97l.58,1.36h-.39l-.58-1.16h-.58v1.16h-.39V1.36Zm3.1,1.74c0-1.16-.97-2.13-2.13-2.13s-2.13,.97-2.13,2.13,.97,2.13,2.13,2.13,2.13-.97,2.13-2.13m-4.85,0c0-1.55,1.16-2.71,2.71-2.71s2.71,1.16,2.71,2.71-1.16,2.72-2.71,2.72-2.71-1.36-2.71-2.72"/>
      <polygon class="cls-3" points="217.8 19.86 213.9 19.86 213.9 18.82 222.89 18.82 222.89 19.86 218.99 19.86 218.99 30.03 217.8 30.03 217.8 19.86"/>
      <path class="cls-3" d="M224.22,18.02h1.12v5.44c.56-.9,1.54-1.46,2.71-1.46,1.92,0,3.41,1.25,3.41,3.95v4.07h-1.12v-3.99c0-2.19-1.15-3.06-2.42-3.06-1.52,0-2.58,1.1-2.58,3.12v3.92h-1.12v-12.01Z"/>
      <path class="cls-3" d="M241.04,25.85v.51h-7.06c.13,1.68,1.38,2.85,3.01,2.85,1.14,0,2.08-.42,2.69-1.18l.7,.59c-.74,1.01-2.02,1.57-3.38,1.57-2.35,0-4.15-1.82-4.15-4.11s1.76-4.18,4.11-4.18,4.02,1.58,4.06,3.95m-7.03-.4h5.91c-.26-1.63-1.38-2.58-2.94-2.58s-2.71,1.04-2.96,2.58"/>
      <polygon class="cls-3" points="214.79 35.32 222.14 35.32 222.14 36.38 215.98 36.38 215.98 40.47 222.01 40.47 222.01 41.52 215.98 41.52 215.98 46.53 214.79 46.53 214.79 35.32"/>
      <path class="cls-3" d="M223.59,42.91v-4.31h1.12v4.23c0,2.06,1.15,2.82,2.42,2.82,1.52,0,2.58-1.1,2.58-3.12v-3.92h1.12v7.92h-1.12v-1.33h-.03c-.56,.88-1.52,1.42-2.67,1.42-1.92,0-3.41-1.14-3.41-3.71"/>
      <path class="cls-3" d="M232.87,38.6h1.12v1.36c.56-.9,1.54-1.46,2.75-1.46,1.97,0,3.36,1.14,3.36,3.73v4.29h-1.12v-4.21c0-2.07-1.06-2.83-2.37-2.83-1.57,0-2.62,1.1-2.62,3.12v3.92h-1.12v-7.92Z"/>
      <path class="cls-3" d="M241.53,42.57c0-2.29,1.68-4.07,3.86-4.07,1.55,0,2.59,.67,3.23,1.65v-5.64h1.12v12.01h-1.12v-1.54c-.64,.94-1.68,1.63-3.23,1.63-2.18,0-3.86-1.79-3.86-4.05m7.09,0c0-1.73-1.3-3.09-2.99-3.09s-2.96,1.36-2.96,3.09,1.28,3.07,2.96,3.07,2.99-1.36,2.99-3.07"/>
    </g>
  </g>
</svg>