<?xml version="1.0" encoding="UTF-8"?>
<svg id="Layer_1" data-name="Layer 1" xmlns="http://www.w3.org/2000/svg" xmlns:xlink="http://www.w3.org/1999/xlink" viewBox="0 0 285.77 75.99">
  <defs>
    <style>
      .cls-1 {
        clip-path: url(#clippath);
      }

      .cls-2 {
        fill: none;
      }

      .cls-3 {
        fill: #d77673;
      }
    </style>
    <clipPath id="clippath">
      <rect class="cls-2" x="0" y="0" width="285.77" height="75.99"/>
    </clipPath>
  </defs>
  <g class="cls-1">
    <path class="cls-3" d="M101.81,24.15h0c1.23,.96,2.69,1.44,4.33,1.44s3.09-.49,4.33-1.44c.93-.72,2.03-2.08,2.03-4.5,0-1.73-.66-3.21-1.91-4.3-1.21-1.05-2.7-1.58-4.45-1.58s-3.25,.53-4.45,1.58c-1.25,1.09-1.91,2.58-1.91,4.3,0,2.42,1.11,3.78,2.03,4.5"/>
    <path class="cls-3" d="M121.25,24.16c1.18,.95,2.59,1.43,4.2,1.43s3.02-.48,4.2-1.43c.88-.71,1.92-2.03,1.92-4.34,0-1.69-.64-3.14-1.85-4.18-1.16-1.01-2.6-1.52-4.27-1.52s-3.11,.51-4.27,1.52c-1.21,1.05-1.85,2.5-1.85,4.19,0,2.31,1.05,3.63,1.92,4.34"/>
    <path class="cls-3" d="M134.11,24.16h0c1.18,.95,2.59,1.43,4.2,1.43s3.02-.48,4.2-1.43c.88-.71,1.92-2.03,1.92-4.34,0-1.68-.63-3.13-1.81-4.18-1.15-1.02-2.6-1.53-4.31-1.53s-3.11,.51-4.27,1.52c-1.21,1.05-1.85,2.5-1.85,4.19,0,2.31,1.05,3.63,1.92,4.34"/>
    <path class="cls-3" d="M261.89,35.27c-1.66-1.75-3.64-3.03-5.88-3.79-2.16-.74-4.7-1.12-7.54-1.12h-14.55l17.32-23.99-8.74-6.36-22.29,30.39-.02,.44c-.17,2.96,.44,4.79,1.02,6.28,.58,1.49,1.3,2.8,2.13,3.89l.45,.59h25.52c.84,0,1.59,.16,2.27,.5,.67,.33,1.2,.74,1.61,1.26,.42,.51,.73,1.12,.93,1.8,.22,.75,.33,1.66,.33,2.69v4.84h-34.17c-2.99,0-5.24-.62-6.7-1.84,.07-.57,.14-1.17,.2-1.76,.08-.9,.13-1.85,.13-2.84V23.48h-11.24v23.84c0,1.93-.46,3.39-1.4,4.46-.89,1.01-2.27,1.51-4.21,1.51s-3.28-.52-4.36-1.6c-1.07-1.07-1.6-2.83-1.6-5.25v-15.84h-11.3v16.2c0,1.22-.19,2.21-.55,2.94-.37,.74-.84,1.31-1.42,1.75-.61,.45-1.26,.76-2,.93-.81,.19-1.6,.29-2.35,.29h-4.54V30.59h-11.3v22.1h-19.7V27.63h-11.3v25.07h-14.6V27.63h-11.3v25.07h-9.62v-7.21c0-2.56-.28-4.96-.82-7.15-.57-2.32-1.59-4.27-3.04-5.8-1.66-1.75-3.64-3.03-5.88-3.79-2.16-.74-4.7-1.12-7.54-1.12h-4.23v11.3h5.06c.84,0,1.61,.16,2.3,.48,.67,.31,1.18,.7,1.58,1.22,.43,.52,.73,1.11,.93,1.8,.22,.75,.33,1.66,.33,2.7v7.57h-20.68v11.3h114.33c2.45,0,4.83-.5,7.07-1.49,1.66-.73,3.16-1.68,4.5-2.82,.5,.61,1.04,1.16,1.61,1.63,1,.82,2.09,1.48,3.24,1.97,1.13,.48,2.32,.82,3.55,1.02,1.18,.19,2.4,.28,3.62,.28,5.51,0,9.73-1.53,12.57-4.55,.09,.11,.18,.21,.28,.32,.64,.71,1.45,1.35,2.42,1.9,.95,.54,2.11,.98,3.43,1.28,.55,.13,1.16,.23,1.8,.3v.16h48.22v-15.78c0-2.56-.27-4.96-.82-7.15-.57-2.32-1.59-4.27-3.04-5.8"/>
    <rect class="cls-3" x="274.47" y="12.93" width="11.3" height="51.06"/>
    <path class="cls-3" d="M276.45,74.5c-1.19-.99-1.78-2.69-1.78-5.1v-2.44h11.05v3.99h-6.8c0,.85,.21,1.5,.64,1.96,.42,.46,1.17,.69,2.23,.69h2.23v2.39h-2.66c-2.09,0-3.73-.5-4.91-1.49"/>
    <path class="cls-3" d="M61.84,16.64c.39,0,.58-.19,.58-.58v-.19c0-.39-.19-.58-.58-.58h-.78v1.16l.78,.19Zm-.97-1.55h1.16c.58,0,.97,.39,.97,.97v.19c0,.39-.19,.78-.78,.97l.58,1.36h-.39l-.58-1.16h-.58v1.16h-.39v-3.49Zm3.1,1.74c0-1.16-.97-2.13-2.13-2.13s-2.13,.97-2.13,2.13,.97,2.13,2.13,2.13,2.13-.97,2.13-2.13m-4.85,0c0-1.55,1.16-2.71,2.71-2.71s2.71,1.16,2.71,2.71-1.16,2.72-2.71,2.72-2.71-1.36-2.71-2.72"/>
    <path class="cls-3" d="M1.07,66.31c-.74-.66-1.07-1.82-1.07-2.72v-3.61H1.2v3.43c0,.98,.28,1.65,.79,2.05,.56,.45,1.4,.63,2.3,.63h5.04v-2.1h-.72c-2.67,0-4.96-1.18-4.96-4.02,0-2.35,1.99-4.12,4.96-4.12h1.92v11.44H4.5c-1.68,0-2.61-.26-3.43-.99m7.05-3.51h1.22v-5.73h-1.22c-1.66,0-3.27,1.17-3.27,2.91s1.47,2.82,3.27,2.82m-2.34-9.42c0-.44,.36-.78,.82-.78s.82,.34,.82,.78c0,.48-.38,.8-.82,.8s-.82-.32-.82-.8m2.89,0c0-.44,.36-.78,.82-.78s.84,.34,.84,.78c0,.48-.38,.8-.84,.8s-.82-.32-.82-.8"/>
    <path class="cls-3" d="M13.84,66.78l.38-1.15c.75,.33,1.28,.47,2.01,.47,1.29,0,2.06-.49,2.06-1.76v-.35h-.72c-2.67,0-4.97-1.18-4.97-4.02,0-2.35,1.99-4.12,4.97-4.12h1.92v8.37c0,1.88-1.01,3.07-3.35,3.07-.72,0-1.38-.16-2.29-.51m3.23-3.99h1.21v-5.73h-1.21c-1.66,0-3.27,1.17-3.27,2.91s1.47,2.82,3.27,2.82"/>
    <path class="cls-3" d="M21.06,62.8h5.62v-3.48c0-.69-.12-1.17-.45-1.59-.33-.41-.9-.67-1.47-.67h-1.05v-1.2h.89c1.12,0,1.89,.34,2.52,1.05,.51,.59,.76,1.44,.76,2.37v3.52h1.86v1.2h-8.68v-1.2Z"/>
    <path class="cls-3" d="M29.45,62.8h1.77v-6.95h1.2v6.95h1.88v1.2h-4.84v-1.2Zm1.46-9.44c0-.45,.38-.81,.85-.81s.86,.36,.86,.81c0,.5-.39,.81-.86,.81s-.85-.32-.85-.81"/>
    <path class="cls-3" d="M33.99,62.8h1.67v-6.95h1.2v.95h5.29c1.18,0,1.93,.31,2.55,1.02,.47,.53,.73,1.38,.73,2.39v2.6h1.85v1.2h-13.29v-1.2Zm2.87-4.8v4.8h7.38v-2.6c0-.64-.12-1.15-.45-1.56-.33-.41-.87-.65-1.63-.65h-5.29Z"/>
    <polygon class="cls-3" points="46.98 62.8 49.25 62.8 49.25 51.83 51.69 51.83 51.69 53.03 50.45 53.03 50.45 63.99 46.98 63.99 46.98 62.8"/>
    <rect class="cls-3" x="53.94" y="51.83" width="1.2" height="12.16"/>
  </g>
</svg>